<?xml version="1.0" encoding="UTF-8" standalone="no"?>
<svg
   xmlns:dc="http://purl.org/dc/elements/1.1/"
   xmlns:cc="http://creativecommons.org/ns#"
   xmlns:rdf="http://www.w3.org/1999/02/22-rdf-syntax-ns#"
   xmlns:svg="http://www.w3.org/2000/svg"
   xmlns="http://www.w3.org/2000/svg"
   viewBox="0 0 106.43431 104.95485"
   height="104.95485"
   width="106.43431"
   id="svg2"
   version="1.1">
  <metadata
     id="metadata8">
    <rdf:RDF>
      <cc:Work
         rdf:about="">
        <dc:format>image/svg+xml</dc:format>
        <dc:type
           rdf:resource="http://purl.org/dc/dcmitype/StillImage" />
        <dc:title></dc:title>
      </cc:Work>
    </rdf:RDF>
  </metadata>
  <defs
     id="defs6" />
  <path
     id="videoIcon"
     d="M 37.871069,102.57723 C 28.171009,99.4355 22.455149,95.920516 15.177819,88.621953 -4.6325707,68.753772 -5.1053507,37.890515 14.083189,17.164602 25.030149,5.3405733 37.357959,0 53.704756,0 64.739191,0 72.213295,2.132537 82.173564,8.122818 93.185076,14.745335 102.91507,28.691899 105.62522,41.73742 107.25415,49.578381 106.32949,63.111341 103.69415,70 93.637005,96.288907 63.898417,111.00716 37.871069,102.57723 Z M 61.688602,93.986015 C 74.499934,91.574332 86.211331,82.56169 92.151211,70.543159 101.24057,52.152085 95.769105,30.745342 78.720849,17.997788 67.03037,9.256424 48.723629,7.4475826 35.401239,13.717491 c -9.32486,4.388557 -16.06585,10.965207 -20.56026,20.059034 -3.66771,7.421111 -4.579245,12.681348 -4.639286,18.830412 -0.06004,6.149064 1.062806,11.280006 4.059906,17.402997 8.69434,17.762243 28.16025,27.602971 47.427003,23.976081 z M 40.575089,53.083333 C 40.575089,39.2875 40.834499,28 41.151559,28 c 0.94079,0 40.424085,24.393535 40.41742,24.970652 -0.0055,0.475148 -38.07597,24.055211 -40.1413,24.862681 -0.46892,0.183334 -0.85259,-10.954166 -0.85259,-24.75 z"
     style="fill:#000000" />
</svg>
