<svg xmlns="http://www.w3.org/2000/svg" xmlns:xlink="http://www.w3.org/1999/xlink" version="1.1" x="0px" y="0px" viewBox="0 0 100 100" enable-background="new 0 0 100 100" xml:space="preserve"><path d="M64.99,10.05H35.01c-4.032,0-7.313,3.28-7.313,7.313v65.275c0,4.032,3.28,7.313,7.313,7.313h29.98  c4.032,0,7.313-3.28,7.313-7.313V17.363C72.303,13.33,69.022,10.05,64.99,10.05z M69.803,82.637c0,2.654-2.159,4.813-4.813,4.813  H35.01c-2.654,0-4.813-2.159-4.813-4.813v-7.703h39.605V82.637z M69.803,72.434H30.197V21.219h39.605V72.434z M69.803,18.719H30.197  v-1.356c0-2.654,2.159-4.813,4.813-4.813h29.98c2.654,0,4.813,2.159,4.813,4.813V18.719z"></path><path d="M50,86.238c2.752,0,4.991-2.239,4.991-4.991S52.752,76.256,50,76.256s-4.991,2.239-4.991,4.991S47.248,86.238,50,86.238z   M50,78.756c1.374,0,2.491,1.118,2.491,2.491S51.374,83.738,50,83.738s-2.491-1.117-2.491-2.491S48.626,78.756,50,78.756z"></path><path d="M51.093,14.364h-6.759c-0.69,0-1.25,0.56-1.25,1.25s0.56,1.25,1.25,1.25h6.759c0.69,0,1.25-0.56,1.25-1.25  S51.784,14.364,51.093,14.364z"></path><circle cx="54.798" cy="15.614" r="0.868"></circle><path d="M78.999,39.688c-0.489,0.487-0.491,1.279-0.004,1.768c1.876,1.884,2.909,4.385,2.909,7.044c0,2.72-1.074,5.262-3.025,7.158  c-0.495,0.481-0.506,1.272-0.025,1.768c0.245,0.252,0.571,0.379,0.896,0.379c0.314,0,0.628-0.118,0.871-0.354  c2.439-2.371,3.783-5.549,3.783-8.951c0-3.324-1.292-6.453-3.638-8.808C80.279,39.202,79.487,39.201,78.999,39.688z"></path><path d="M87.566,32.874c-0.492-0.484-1.283-0.479-1.768,0.013c-0.484,0.492-0.479,1.283,0.013,1.768  c3.772,3.716,5.85,8.678,5.85,13.972s-2.077,10.255-5.849,13.971c-0.492,0.485-0.498,1.276-0.013,1.768  c0.245,0.248,0.567,0.373,0.891,0.373c0.317,0,0.634-0.12,0.877-0.359c4.252-4.189,6.594-9.783,6.594-15.752  S91.819,37.064,87.566,32.874z"></path><path d="M18.096,48.5c0-2.659,1.033-5.16,2.909-7.044c0.487-0.489,0.485-1.28-0.004-1.768c-0.488-0.486-1.28-0.486-1.768,0.004  c-2.346,2.355-3.638,5.483-3.638,8.808c0,3.401,1.343,6.58,3.783,8.951c0.243,0.236,0.557,0.354,0.871,0.354  c0.326,0,0.651-0.126,0.896-0.379c0.481-0.495,0.47-1.286-0.025-1.768C19.17,53.762,18.096,51.22,18.096,48.5z"></path><path d="M14.202,32.887c-0.485-0.491-1.276-0.498-1.768-0.013c-4.252,4.189-6.595,9.784-6.595,15.753s2.342,11.563,6.594,15.752  c0.244,0.24,0.561,0.359,0.877,0.359c0.323,0,0.646-0.125,0.891-0.373c0.484-0.492,0.479-1.283-0.013-1.768  c-3.771-3.715-5.849-8.677-5.849-13.971s2.077-10.256,5.85-13.972C14.68,34.171,14.686,33.38,14.202,32.887z"></path></svg>