<?xml version="1.0" encoding="UTF-8" standalone="no"?>
<!-- Created with Inkscape (http://www.inkscape.org/) -->

<svg
   xmlns:dc="http://purl.org/dc/elements/1.1/"
   xmlns:cc="http://creativecommons.org/ns#"
   xmlns:rdf="http://www.w3.org/1999/02/22-rdf-syntax-ns#"
   xmlns:svg="http://www.w3.org/2000/svg"
   xmlns="http://www.w3.org/2000/svg"
   xmlns:sodipodi="http://sodipodi.sourceforge.net/DTD/sodipodi-0.dtd"
   xmlns:inkscape="http://www.inkscape.org/namespaces/inkscape"
   version="1.1"
   id="svg2"
   width="34.47562"
   height="34.552216"
   viewBox="0 0 34.47562 34.552216"
   sodipodi:docname="icon_embroidery.svg"
   inkscape:version="0.92.0 r15299">
  <metadata
     id="metadata8">
    <rdf:RDF>
      <cc:Work
         rdf:about="">
        <dc:format>image/svg+xml</dc:format>
        <dc:type
           rdf:resource="http://purl.org/dc/dcmitype/StillImage" />
        <dc:title></dc:title>
      </cc:Work>
    </rdf:RDF>
  </metadata>
  <defs
     id="defs6">
    <style
       id="style4521">.cls-1{fill:none;stroke:#000;stroke-linecap:round;stroke-miterlimit:10;stroke-width:5px;}</style>
  </defs>
  <sodipodi:namedview
     pagecolor="#ffffff"
     bordercolor="#666666"
     borderopacity="1"
     objecttolerance="10"
     gridtolerance="10"
     guidetolerance="10"
     inkscape:pageopacity="0"
     inkscape:pageshadow="2"
     inkscape:window-width="1920"
     inkscape:window-height="1018"
     id="namedview4"
     showgrid="false"
     fit-margin-top="0"
     fit-margin-left="0"
     fit-margin-right="0"
     fit-margin-bottom="0"
     inkscape:zoom="4.6153846"
     inkscape:cx="-14.435028"
     inkscape:cy="33.41281"
     inkscape:window-x="-8"
     inkscape:window-y="-8"
     inkscape:window-maximized="1"
     inkscape:current-layer="svg2" />
  <path
     style="fill:#000000;stroke-width:1.33333337"
     d=""
     id="path4489"
     inkscape:connector-curvature="0" />
  <path
     style="fill:#000000;stroke-width:1.33333337"
     d=""
     id="path4487"
     inkscape:connector-curvature="0" />
  <ellipse
     style="fill:none;fill-opacity:1;stroke:#000000;stroke-width:0.96373582;stroke-miterlimit:4;stroke-dasharray:none;stroke-opacity:1"
     id="path4684"
     cx="17.23781"
     cy="17.276108"
     rx="16.755941"
     ry="16.794239" />
  <path
     style="fill:none;stroke:#000000;stroke-width:1px;stroke-linecap:butt;stroke-linejoin:miter;stroke-opacity:1"
     d="m 3.2577174,8.1603226 c 0,0 0.01662,3.2619834 3.217336,3.2939394 5.5034116,0.05495 7.6429026,0.06708 14.7078216,-3e-6 2.992239,-0.02841 2.888971,-3.1108814 0.842635,-4.7493979 -1.511887,-0.5973303 -3.416279,-0.065031 -4.059971,1.1490486 -2.19112,3.9185603 -4.218503,8.8812933 -6.894292,12.4863273 -1.8053246,2.050493 -4.0421316,2.736477 -5.8984486,1.608668 -1.873746,-1.549056 -1.642634,-4.78679 1.149049,-4.902607 9.0002736,-0.373389 13.1230636,0.01281 21.3723026,0 2.183082,-0.0034 2.694852,-2.471544 1.68527,-4.136575 -0.486673,-0.748147 -3.196842,-1.068231 -3.830162,-0.22981 -1.553098,1.977471 -3.676955,6.051656 -3.676955,6.051656 l -2.757716,4.672798 -1.532065,2.3747 c -1.292554,1.383351 -2.174991,1.528068 -3.753558,0.995842 -0.628655,-0.360181 -1.179354,-1.45285 -1.072442,-2.834321 0.810106,-1.612869 0.778665,-1.73965 2.527907,-2.144889 1.749242,-0.405239 10.314311,-0.107557 12.716137,0 2.401826,0.107557 3.830162,3.600352 3.830162,3.600352 l 0.0766,0.229809"
     id="path4686"
     inkscape:connector-curvature="0"
     sodipodi:nodetypes="cssccccssccccccczzcc" />
</svg>
