<?xml version="1.0" encoding="UTF-8" standalone="no"?>
<svg
   xmlns:dc="http://purl.org/dc/elements/1.1/"
   xmlns:cc="http://creativecommons.org/ns#"
   xmlns:rdf="http://www.w3.org/1999/02/22-rdf-syntax-ns#"
   xmlns:svg="http://www.w3.org/2000/svg"
   xmlns="http://www.w3.org/2000/svg"
   height="53"
   width="55"
   id="svg6"
   xml:space="preserve"
   enable-background="new 0 0 64 64"
   viewBox="0 0 55 53"
   y="0px"
   x="0px"
   version="1.1"><metadata
     id="metadata12"><rdf:RDF><cc:Work
         rdf:about=""><dc:format>image/svg+xml</dc:format><dc:type
           rdf:resource="http://purl.org/dc/dcmitype/StillImage" /><dc:title></dc:title></cc:Work></rdf:RDF></metadata><defs
     id="defs10" /><g
     transform="translate(-4.5,-6.5)"
     id="g4"><path
       style="stroke:#6b6b6b;stroke-width:2;stroke-miterlimit:4;stroke-dasharray:none;stroke-opacity:1"
       id="path2"
       d="M 58,7.5 H 42 c -0.113,0 -0.224,0.039 -0.312,0.109 L 32,15.36 22.312,7.61 C 22.224,7.539 22.114,7.5 22,7.5 H 6 C 5.724,7.5 5.5,7.724 5.5,8 v 14 c 0,0.276 0.224,0.5 0.5,0.5 h 9.5 V 58 c 0,0.276 0.224,0.5 0.5,0.5 h 32 c 0.276,0 0.5,-0.224 0.5,-0.5 V 22.5 H 58 c 0.276,0 0.5,-0.224 0.5,-0.5 V 8 C 58.5,7.724 58.276,7.5 58,7.5 Z m -0.5,14 H 48 c -0.276,0 -0.5,0.224 -0.5,0.5 v 35.5 h -31 V 22 c 0,-0.276 -0.224,-0.5 -0.5,-0.5 H 6.5 v -13 h 15.325 l 9.863,7.891 c 0.183,0.146 0.442,0.146 0.625,0 L 42.176,8.5 H 57.5 Z" /></g></svg>