<svg xmlns="http://www.w3.org/2000/svg" xmlns:xlink="http://www.w3.org/1999/xlink" version="1.1" x="0px" y="0px" viewBox="0 0 64 64" enable-background="new 0 0 64 64" xml:space="preserve"><g><path d="M58,7.5H42c-0.113,0-0.224,0.039-0.312,0.109L32,15.36l-9.688-7.75C22.224,7.539,22.114,7.5,22,7.5H6   C5.724,7.5,5.5,7.724,5.5,8v14c0,0.276,0.224,0.5,0.5,0.5h9.5V58c0,0.276,0.224,0.5,0.5,0.5h32c0.276,0,0.5-0.224,0.5-0.5V22.5H58   c0.276,0,0.5-0.224,0.5-0.5V8C58.5,7.724,58.276,7.5,58,7.5z M57.5,21.5H48c-0.276,0-0.5,0.224-0.5,0.5v35.5h-31V22   c0-0.276-0.224-0.5-0.5-0.5H6.5v-13h15.325l9.863,7.891c0.183,0.146,0.442,0.146,0.625,0L42.176,8.5H57.5V21.5z"></path></g></svg>